<?xml version="1.0" encoding="UTF-8" standalone="no"?>
<!DOCTYPE svg PUBLIC "-//W3C//DTD SVG 1.1//EN" "http://www.w3.org/Graphics/SVG/1.1/DTD/svg11.dtd">
<!-- Created with Vectornator (http://vectornator.io/) -->
<svg height="100%" stroke-miterlimit="10" style="fill-rule:nonzero;clip-rule:evenodd;stroke-linecap:round;stroke-linejoin:round;" version="1.1" viewBox="0 0 32 32" width="100%" xml:space="preserve" xmlns="http://www.w3.org/2000/svg" xmlns:xlink="http://www.w3.org/1999/xlink">
<defs/>
<g id="g4">
<path d="M17 14.5L21.2 10L4.9 1.2C4.8 1.1 4.6 1.1 4.3 1L17 14.5Z" fill="#ffffff" fill-rule="nonzero" opacity="1" stroke="none"/>
<path d="M23 21L28.9 17.8C29.6 17.4 30 16.8 30 16C30 15.2 29.6 14.5 28.9 14.2L23 11L18.3 16L23 21Z" fill="#ffffff" fill-rule="nonzero" opacity="1" stroke="none"/>
<path d="M2.4 1.9C2.1 2.2 2 2.6 2 3L2 29C2 29.4 2.1 29.8 2.4 30.2L15.6 16L2.4 1.9Z" fill="#ffffff" fill-rule="nonzero" opacity="1" stroke="none"/>
<path d="M17 17.5L4.3 31C4.5 31 4.7 30.9 4.9 30.8L21.2 22L17 17.5Z" fill="#ffffff" fill-rule="nonzero" opacity="1" stroke="none"/>
</g>
</svg>
