<svg width="2155" height="1080" viewBox="0 0 2155 1080" fill="none" xmlns="http://www.w3.org/2000/svg">
<path d="M635.936 590H378C367.847 590.002 357.719 588.982 347.77 586.953C338.119 584.976 328.688 582.049 319.614 578.213C310.694 574.437 302.161 569.805 294.135 564.383C286.168 558.998 278.735 552.865 271.935 546.066C265.136 539.266 259.003 531.832 253.618 523.866C248.197 515.839 243.565 507.307 239.788 498.387C235.953 489.312 233.024 479.88 231.047 470.229C229.018 460.281 227.998 450.153 228 440C227.998 429.847 229.018 419.719 231.047 409.77C233.024 400.119 235.952 390.687 239.788 381.613C243.565 372.693 248.197 364.16 253.618 356.133C259.004 348.167 265.137 340.734 271.935 333.933C278.735 327.135 286.169 321.002 294.135 315.617C302.161 310.195 310.694 305.563 319.614 301.787C328.688 297.951 338.119 295.024 347.77 293.047C357.719 291.018 367.847 289.998 378 290H678C691.261 290 703.978 295.268 713.355 304.645C722.732 314.021 728 326.739 728 340C728 353.261 722.732 365.979 713.355 375.355C703.978 384.732 691.261 390 678 390H377.73C371.044 389.987 364.425 391.324 358.268 393.93C352.326 396.439 346.928 400.078 342.374 404.645C337.808 409.199 334.17 414.596 331.66 420.537C329.054 426.694 327.717 433.314 327.73 440C327.717 446.686 329.053 453.305 331.659 459.462C334.169 465.403 337.807 470.801 342.373 475.356C346.928 479.922 352.326 483.561 358.267 486.071C364.424 488.677 371.044 490.013 377.73 490H678C691.261 490 703.978 495.268 713.355 504.645C722.732 514.021 728 526.739 728 540C728 553.261 722.732 565.979 713.355 575.355C703.978 584.732 691.261 590 678 590H635.936Z" fill="white"/>
<path d="M1520.06 290.002L1778 290.002C1788.15 290 1798.28 291.02 1808.23 293.049C1817.88 295.026 1827.31 297.953 1836.39 301.789C1845.3 305.565 1853.84 310.197 1861.86 315.619C1869.83 321.004 1877.26 327.137 1884.06 333.936C1890.86 340.736 1897 348.17 1902.38 356.136C1907.8 364.163 1912.43 372.696 1916.21 381.615C1920.05 390.69 1922.97 400.122 1924.95 409.773C1926.98 419.721 1928 429.849 1928 440.002C1928 450.155 1926.98 460.283 1924.95 470.232C1922.97 479.883 1920.05 489.315 1916.21 498.389C1912.43 507.309 1907.8 515.842 1902.38 523.869C1897 531.835 1890.86 539.268 1884.06 546.069C1877.26 552.867 1869.83 559 1861.86 564.385C1853.84 569.807 1845.31 574.439 1836.39 578.215C1827.31 582.051 1817.88 584.978 1808.23 586.955C1798.28 588.984 1788.15 590.004 1778 590.002H1478C1464.74 590.002 1452.02 584.734 1442.64 575.357C1433.27 565.981 1428 553.263 1428 540.002C1428 526.741 1433.27 514.023 1442.64 504.647C1452.02 495.27 1464.74 490.002 1478 490.002L1778.27 490.002C1784.95 490.015 1791.57 488.678 1797.73 486.072C1803.67 483.563 1809.07 479.924 1813.62 475.357C1818.19 470.803 1821.83 465.406 1824.34 459.465C1826.94 453.308 1828.28 446.688 1828.27 440.002C1828.28 433.316 1826.95 426.697 1824.34 420.54C1821.83 414.599 1818.19 409.201 1813.63 404.646C1809.07 400.08 1803.67 396.441 1797.73 393.931C1791.57 391.325 1784.95 389.989 1778.27 390.002L1478 390.002C1464.74 390.002 1452.02 384.734 1442.64 375.357C1433.27 365.981 1428 353.263 1428 340.002C1428 326.741 1433.27 314.023 1442.64 304.647C1452.02 295.27 1464.74 290.002 1478 290.002H1520.06Z" fill="white"/>
<path d="M678 690H293C265.386 690 243 712.386 243 740C243 767.614 265.386 790 293 790H678C705.614 790 728 767.614 728 740C728 712.386 705.614 690 678 690Z" fill="white"/>
<path d="M1278 690H878C850.386 690 828 712.386 828 740C828 767.614 850.386 790 878 790H1278C1305.61 790 1328 767.614 1328 740C1328 712.386 1305.61 690 1278 690Z" fill="white"/>
<path d="M1278 290H878C850.386 290 828 312.386 828 340C828 367.614 850.386 390 878 390H1278C1305.61 390 1328 367.614 1328 340C1328 312.386 1305.61 290 1278 290Z" fill="white"/>
<path d="M1278 490H878C850.386 490 828 512.386 828 540C828 567.614 850.386 590 878 590H1278C1305.61 590 1328 567.614 1328 540C1328 512.386 1305.61 490 1278 490Z" fill="white"/>
<path d="M1528 740C1528 712.386 1505.61 690 1478 690C1450.39 690 1428 712.386 1428 740C1428 767.614 1450.39 790 1478 790C1505.61 790 1528 767.614 1528 740Z" fill="white"/>
</svg>
